<mxfile host="app.diagrams.net" agent="Mozilla/5.0 (Windows NT 10.0; Win64; x64) AppleWebKit/537.36 (KHTML, like Gecko) Chrome/138.0.0.0 Safari/537.36" version="28.0.6">
  <diagram name="Page-1" id="2YBvvXClWsGukQMizWep">
    <mxGraphModel dx="1567" dy="1051" grid="1" gridSize="10" guides="1" tooltips="1" connect="1" arrows="1" fold="1" page="1" pageScale="1" pageWidth="850" pageHeight="1100" math="0" shadow="0">
      <root>
        <mxCell id="0" />
        <mxCell id="1" parent="0" />
        <mxCell id="aM9ryv3xv72pqoxQDRHE-1" value=":WMS" style="shape=umlLifeline;perimeter=lifelinePerimeter;whiteSpace=wrap;html=1;container=0;dropTarget=0;collapsible=0;recursiveResize=0;outlineConnect=0;portConstraint=eastwest;newEdgeStyle={&quot;edgeStyle&quot;:&quot;elbowEdgeStyle&quot;,&quot;elbow&quot;:&quot;vertical&quot;,&quot;curved&quot;:0,&quot;rounded&quot;:0};" parent="1" vertex="1">
          <mxGeometry x="141" y="140" width="100" height="800" as="geometry" />
        </mxCell>
        <mxCell id="aM9ryv3xv72pqoxQDRHE-2" value="" style="html=1;points=[];perimeter=orthogonalPerimeter;outlineConnect=0;targetShapes=umlLifeline;portConstraint=eastwest;newEdgeStyle={&quot;edgeStyle&quot;:&quot;elbowEdgeStyle&quot;,&quot;elbow&quot;:&quot;vertical&quot;,&quot;curved&quot;:0,&quot;rounded&quot;:0};" parent="aM9ryv3xv72pqoxQDRHE-1" vertex="1">
          <mxGeometry x="45" y="70" width="10" height="440" as="geometry" />
        </mxCell>
        <mxCell id="aM9ryv3xv72pqoxQDRHE-3" value="dispatch" style="html=1;verticalAlign=bottom;startArrow=oval;endArrow=block;startSize=8;edgeStyle=elbowEdgeStyle;elbow=vertical;curved=0;rounded=0;" parent="aM9ryv3xv72pqoxQDRHE-1" target="aM9ryv3xv72pqoxQDRHE-2" edge="1">
          <mxGeometry relative="1" as="geometry">
            <mxPoint x="-15" y="70" as="sourcePoint" />
          </mxGeometry>
        </mxCell>
        <mxCell id="aM9ryv3xv72pqoxQDRHE-4" value="" style="html=1;points=[];perimeter=orthogonalPerimeter;outlineConnect=0;targetShapes=umlLifeline;portConstraint=eastwest;newEdgeStyle={&quot;edgeStyle&quot;:&quot;elbowEdgeStyle&quot;,&quot;elbow&quot;:&quot;vertical&quot;,&quot;curved&quot;:0,&quot;rounded&quot;:0};" parent="aM9ryv3xv72pqoxQDRHE-1" vertex="1">
          <mxGeometry x="50" y="120" width="10" height="80" as="geometry" />
        </mxCell>
        <mxCell id="aM9ryv3xv72pqoxQDRHE-5" value=":ECS 제어" style="shape=umlLifeline;perimeter=lifelinePerimeter;whiteSpace=wrap;html=1;container=0;dropTarget=0;collapsible=0;recursiveResize=0;outlineConnect=0;portConstraint=eastwest;newEdgeStyle={&quot;edgeStyle&quot;:&quot;elbowEdgeStyle&quot;,&quot;elbow&quot;:&quot;vertical&quot;,&quot;curved&quot;:0,&quot;rounded&quot;:0};" parent="1" vertex="1">
          <mxGeometry x="321" y="140" width="100" height="800" as="geometry" />
        </mxCell>
        <mxCell id="aM9ryv3xv72pqoxQDRHE-6" value="" style="html=1;points=[];perimeter=orthogonalPerimeter;outlineConnect=0;targetShapes=umlLifeline;portConstraint=eastwest;newEdgeStyle={&quot;edgeStyle&quot;:&quot;elbowEdgeStyle&quot;,&quot;elbow&quot;:&quot;vertical&quot;,&quot;curved&quot;:0,&quot;rounded&quot;:0};" parent="aM9ryv3xv72pqoxQDRHE-5" vertex="1">
          <mxGeometry x="45" y="80" width="10" height="420" as="geometry" />
        </mxCell>
        <mxCell id="aM9ryv3xv72pqoxQDRHE-7" value="Job Order Directive" style="html=1;verticalAlign=bottom;endArrow=block;edgeStyle=elbowEdgeStyle;elbow=vertical;curved=0;rounded=0;" parent="1" source="aM9ryv3xv72pqoxQDRHE-2" target="aM9ryv3xv72pqoxQDRHE-6" edge="1">
          <mxGeometry relative="1" as="geometry">
            <mxPoint x="296" y="230" as="sourcePoint" />
            <Array as="points">
              <mxPoint x="281" y="220" />
            </Array>
          </mxGeometry>
        </mxCell>
        <mxCell id="aM9ryv3xv72pqoxQDRHE-9" value="ACK" style="html=1;verticalAlign=bottom;endArrow=block;edgeStyle=elbowEdgeStyle;elbow=vertical;curved=0;rounded=0;" parent="1" source="aM9ryv3xv72pqoxQDRHE-6" target="aM9ryv3xv72pqoxQDRHE-4" edge="1">
          <mxGeometry relative="1" as="geometry">
            <mxPoint x="276" y="260" as="sourcePoint" />
            <Array as="points">
              <mxPoint x="291" y="260" />
            </Array>
          </mxGeometry>
        </mxCell>
        <mxCell id="IH7ZDO6dK_49iUQYEOAa-1" value=":ECS 통신" style="shape=umlLifeline;perimeter=lifelinePerimeter;whiteSpace=wrap;html=1;container=0;dropTarget=0;collapsible=0;recursiveResize=0;outlineConnect=0;portConstraint=eastwest;newEdgeStyle={&quot;edgeStyle&quot;:&quot;elbowEdgeStyle&quot;,&quot;elbow&quot;:&quot;vertical&quot;,&quot;curved&quot;:0,&quot;rounded&quot;:0};" parent="1" vertex="1">
          <mxGeometry x="491" y="140" width="100" height="810" as="geometry" />
        </mxCell>
        <mxCell id="IH7ZDO6dK_49iUQYEOAa-2" value="" style="html=1;points=[];perimeter=orthogonalPerimeter;outlineConnect=0;targetShapes=umlLifeline;portConstraint=eastwest;newEdgeStyle={&quot;edgeStyle&quot;:&quot;elbowEdgeStyle&quot;,&quot;elbow&quot;:&quot;vertical&quot;,&quot;curved&quot;:0,&quot;rounded&quot;:0};" parent="IH7ZDO6dK_49iUQYEOAa-1" vertex="1">
          <mxGeometry x="45" y="80" width="10" height="420" as="geometry" />
        </mxCell>
        <mxCell id="IH7ZDO6dK_49iUQYEOAa-10" value="&lt;font style=&quot;font-size: 15px;&quot;&gt;USE CASE 1. AMR 입고 작업 요청 시나리오&lt;/font&gt;&lt;div&gt;: WMS 입고 명령 수신 후 ECS를 통해 AMR에 입고 작업 명령 요청&lt;/div&gt;" style="text;html=1;align=left;verticalAlign=middle;whiteSpace=wrap;rounded=0;" parent="1" vertex="1">
          <mxGeometry x="6" y="60" width="420" height="60" as="geometry" />
        </mxCell>
        <mxCell id="IH7ZDO6dK_49iUQYEOAa-11" value="&lt;span style=&quot;font-size: 15px;&quot;&gt;작성 표준.&amp;nbsp;&lt;/span&gt;&lt;div&gt;&lt;span style=&quot;font-size: 15px;&quot;&gt;작성 일시. 2025.07.15&lt;/span&gt;&lt;/div&gt;&lt;div&gt;&lt;span style=&quot;font-size: 15px;&quot;&gt;작성인. 물류SI/ 양현지&lt;/span&gt;&lt;/div&gt;" style="text;html=1;align=left;verticalAlign=middle;whiteSpace=wrap;rounded=0;" parent="1" vertex="1">
          <mxGeometry x="6" width="420" height="60" as="geometry" />
        </mxCell>
        <mxCell id="IH7ZDO6dK_49iUQYEOAa-13" value="Inbound" style="shape=umlFrame;whiteSpace=wrap;html=1;pointerEvents=0;" parent="1" vertex="1">
          <mxGeometry x="61" y="120" width="1270" height="1100" as="geometry" />
        </mxCell>
        <mxCell id="tQVGiBFU_Dlv3NuEr5qG-1" value="OUTBound Process" style="shape=umlFrame;whiteSpace=wrap;html=1;pointerEvents=0;" parent="1" vertex="1">
          <mxGeometry x="61" y="1330" width="570" height="590" as="geometry" />
        </mxCell>
        <mxCell id="tQVGiBFU_Dlv3NuEr5qG-2" value=":WMS" style="shape=umlLifeline;perimeter=lifelinePerimeter;whiteSpace=wrap;html=1;container=0;dropTarget=0;collapsible=0;recursiveResize=0;outlineConnect=0;portConstraint=eastwest;newEdgeStyle={&quot;edgeStyle&quot;:&quot;elbowEdgeStyle&quot;,&quot;elbow&quot;:&quot;vertical&quot;,&quot;curved&quot;:0,&quot;rounded&quot;:0};" parent="1" vertex="1">
          <mxGeometry x="141" y="1350" width="100" height="570" as="geometry" />
        </mxCell>
        <mxCell id="tQVGiBFU_Dlv3NuEr5qG-3" value="" style="html=1;points=[];perimeter=orthogonalPerimeter;outlineConnect=0;targetShapes=umlLifeline;portConstraint=eastwest;newEdgeStyle={&quot;edgeStyle&quot;:&quot;elbowEdgeStyle&quot;,&quot;elbow&quot;:&quot;vertical&quot;,&quot;curved&quot;:0,&quot;rounded&quot;:0};" parent="tQVGiBFU_Dlv3NuEr5qG-2" vertex="1">
          <mxGeometry x="45" y="70" width="10" height="440" as="geometry" />
        </mxCell>
        <mxCell id="tQVGiBFU_Dlv3NuEr5qG-4" value="dispatch" style="html=1;verticalAlign=bottom;startArrow=oval;endArrow=block;startSize=8;edgeStyle=elbowEdgeStyle;elbow=vertical;curved=0;rounded=0;" parent="tQVGiBFU_Dlv3NuEr5qG-2" target="tQVGiBFU_Dlv3NuEr5qG-3" edge="1">
          <mxGeometry relative="1" as="geometry">
            <mxPoint x="-15" y="70" as="sourcePoint" />
          </mxGeometry>
        </mxCell>
        <mxCell id="tQVGiBFU_Dlv3NuEr5qG-5" value="" style="html=1;points=[];perimeter=orthogonalPerimeter;outlineConnect=0;targetShapes=umlLifeline;portConstraint=eastwest;newEdgeStyle={&quot;edgeStyle&quot;:&quot;elbowEdgeStyle&quot;,&quot;elbow&quot;:&quot;vertical&quot;,&quot;curved&quot;:0,&quot;rounded&quot;:0};" parent="tQVGiBFU_Dlv3NuEr5qG-2" vertex="1">
          <mxGeometry x="50" y="120" width="10" height="80" as="geometry" />
        </mxCell>
        <mxCell id="tQVGiBFU_Dlv3NuEr5qG-6" value=":ECS" style="shape=umlLifeline;perimeter=lifelinePerimeter;whiteSpace=wrap;html=1;container=0;dropTarget=0;collapsible=0;recursiveResize=0;outlineConnect=0;portConstraint=eastwest;newEdgeStyle={&quot;edgeStyle&quot;:&quot;elbowEdgeStyle&quot;,&quot;elbow&quot;:&quot;vertical&quot;,&quot;curved&quot;:0,&quot;rounded&quot;:0};" parent="1" vertex="1">
          <mxGeometry x="321" y="1350" width="100" height="570" as="geometry" />
        </mxCell>
        <mxCell id="tQVGiBFU_Dlv3NuEr5qG-7" value="" style="html=1;points=[];perimeter=orthogonalPerimeter;outlineConnect=0;targetShapes=umlLifeline;portConstraint=eastwest;newEdgeStyle={&quot;edgeStyle&quot;:&quot;elbowEdgeStyle&quot;,&quot;elbow&quot;:&quot;vertical&quot;,&quot;curved&quot;:0,&quot;rounded&quot;:0};" parent="tQVGiBFU_Dlv3NuEr5qG-6" vertex="1">
          <mxGeometry x="45" y="80" width="10" height="420" as="geometry" />
        </mxCell>
        <mxCell id="tQVGiBFU_Dlv3NuEr5qG-8" value="dispatch" style="html=1;verticalAlign=bottom;endArrow=block;edgeStyle=elbowEdgeStyle;elbow=vertical;curved=0;rounded=0;" parent="1" source="tQVGiBFU_Dlv3NuEr5qG-3" target="tQVGiBFU_Dlv3NuEr5qG-7" edge="1">
          <mxGeometry relative="1" as="geometry">
            <mxPoint x="296" y="1440" as="sourcePoint" />
            <Array as="points">
              <mxPoint x="281" y="1430" />
            </Array>
          </mxGeometry>
        </mxCell>
        <mxCell id="tQVGiBFU_Dlv3NuEr5qG-9" value="return" style="html=1;verticalAlign=bottom;endArrow=open;dashed=1;endSize=8;edgeStyle=elbowEdgeStyle;elbow=vertical;curved=0;rounded=0;" parent="1" edge="1">
          <mxGeometry relative="1" as="geometry">
            <mxPoint x="196" y="1839" as="targetPoint" />
            <Array as="points">
              <mxPoint x="291" y="1839" />
            </Array>
            <mxPoint x="366" y="1839" as="sourcePoint" />
          </mxGeometry>
        </mxCell>
        <mxCell id="tQVGiBFU_Dlv3NuEr5qG-10" value="callback" style="html=1;verticalAlign=bottom;endArrow=block;edgeStyle=elbowEdgeStyle;elbow=vertical;curved=0;rounded=0;" parent="1" source="tQVGiBFU_Dlv3NuEr5qG-7" target="tQVGiBFU_Dlv3NuEr5qG-5" edge="1">
          <mxGeometry relative="1" as="geometry">
            <mxPoint x="276" y="1470" as="sourcePoint" />
            <Array as="points">
              <mxPoint x="291" y="1470" />
            </Array>
          </mxGeometry>
        </mxCell>
        <mxCell id="tQVGiBFU_Dlv3NuEr5qG-11" value="return" style="html=1;verticalAlign=bottom;endArrow=open;dashed=1;endSize=8;edgeStyle=elbowEdgeStyle;elbow=vertical;curved=0;rounded=0;" parent="1" edge="1">
          <mxGeometry relative="1" as="geometry">
            <mxPoint x="366" y="1789" as="targetPoint" />
            <Array as="points">
              <mxPoint x="281" y="1789" />
            </Array>
            <mxPoint x="201" y="1789" as="sourcePoint" />
          </mxGeometry>
        </mxCell>
        <mxCell id="tQVGiBFU_Dlv3NuEr5qG-12" value=":AMR" style="shape=umlLifeline;perimeter=lifelinePerimeter;whiteSpace=wrap;html=1;container=0;dropTarget=0;collapsible=0;recursiveResize=0;outlineConnect=0;portConstraint=eastwest;newEdgeStyle={&quot;edgeStyle&quot;:&quot;elbowEdgeStyle&quot;,&quot;elbow&quot;:&quot;vertical&quot;,&quot;curved&quot;:0,&quot;rounded&quot;:0};" parent="1" vertex="1">
          <mxGeometry x="491" y="1350" width="100" height="570" as="geometry" />
        </mxCell>
        <mxCell id="tQVGiBFU_Dlv3NuEr5qG-13" value="" style="html=1;points=[];perimeter=orthogonalPerimeter;outlineConnect=0;targetShapes=umlLifeline;portConstraint=eastwest;newEdgeStyle={&quot;edgeStyle&quot;:&quot;elbowEdgeStyle&quot;,&quot;elbow&quot;:&quot;vertical&quot;,&quot;curved&quot;:0,&quot;rounded&quot;:0};" parent="tQVGiBFU_Dlv3NuEr5qG-12" vertex="1">
          <mxGeometry x="45" y="80" width="10" height="420" as="geometry" />
        </mxCell>
        <mxCell id="tQVGiBFU_Dlv3NuEr5qG-14" value="작업 등록 명령 (O)" style="html=1;verticalAlign=bottom;endArrow=block;edgeStyle=elbowEdgeStyle;elbow=vertical;curved=0;rounded=0;" parent="1" source="tQVGiBFU_Dlv3NuEr5qG-7" target="tQVGiBFU_Dlv3NuEr5qG-13" edge="1">
          <mxGeometry relative="1" as="geometry">
            <mxPoint x="371" y="1480" as="sourcePoint" />
            <Array as="points">
              <mxPoint x="456" y="1480" />
            </Array>
            <mxPoint x="501" y="1480" as="targetPoint" />
          </mxGeometry>
        </mxCell>
        <mxCell id="tQVGiBFU_Dlv3NuEr5qG-15" value="Response" style="html=1;verticalAlign=bottom;endArrow=block;edgeStyle=elbowEdgeStyle;elbow=vertical;curved=0;rounded=0;" parent="1" source="tQVGiBFU_Dlv3NuEr5qG-13" target="tQVGiBFU_Dlv3NuEr5qG-7" edge="1">
          <mxGeometry relative="1" as="geometry">
            <mxPoint x="501" y="1470" as="sourcePoint" />
            <Array as="points">
              <mxPoint x="531" y="1510" />
            </Array>
            <mxPoint x="661" y="1470" as="targetPoint" />
          </mxGeometry>
        </mxCell>
        <mxCell id="tQVGiBFU_Dlv3NuEr5qG-16" value="작업 상태변경 보고 (R)" style="html=1;verticalAlign=bottom;endArrow=block;edgeStyle=elbowEdgeStyle;elbow=vertical;curved=0;rounded=0;" parent="1" edge="1">
          <mxGeometry relative="1" as="geometry">
            <mxPoint x="536" y="1552" as="sourcePoint" />
            <Array as="points">
              <mxPoint x="531" y="1552" />
            </Array>
            <mxPoint x="376" y="1552" as="targetPoint" />
          </mxGeometry>
        </mxCell>
        <mxCell id="tQVGiBFU_Dlv3NuEr5qG-17" value="Response" style="html=1;verticalAlign=bottom;endArrow=block;edgeStyle=elbowEdgeStyle;elbow=vertical;curved=0;rounded=0;" parent="1" target="tQVGiBFU_Dlv3NuEr5qG-13" edge="1">
          <mxGeometry relative="1" as="geometry">
            <mxPoint x="376" y="1589.4099999999999" as="sourcePoint" />
            <Array as="points" />
            <mxPoint x="721" y="1589.4099999999999" as="targetPoint" />
          </mxGeometry>
        </mxCell>
        <mxCell id="tQVGiBFU_Dlv3NuEr5qG-18" value=".&lt;div&gt;.&lt;/div&gt;&lt;div&gt;.&lt;/div&gt;&lt;div&gt;.&lt;/div&gt;&lt;div&gt;&lt;br&gt;&lt;/div&gt;" style="text;html=1;align=center;verticalAlign=middle;whiteSpace=wrap;rounded=0;" parent="1" vertex="1">
          <mxGeometry x="421" y="1620" width="60" height="30" as="geometry" />
        </mxCell>
        <mxCell id="tQVGiBFU_Dlv3NuEr5qG-19" value="작업 상태변경 보고(R) : 완료보고" style="html=1;verticalAlign=bottom;endArrow=block;edgeStyle=elbowEdgeStyle;elbow=vertical;curved=0;rounded=0;" parent="1" edge="1">
          <mxGeometry relative="1" as="geometry">
            <mxPoint x="536" y="1676" as="sourcePoint" />
            <Array as="points">
              <mxPoint x="531" y="1676" />
            </Array>
            <mxPoint x="376" y="1676" as="targetPoint" />
          </mxGeometry>
        </mxCell>
        <mxCell id="tQVGiBFU_Dlv3NuEr5qG-20" value="Response" style="html=1;verticalAlign=bottom;endArrow=block;edgeStyle=elbowEdgeStyle;elbow=vertical;curved=0;rounded=0;" parent="1" edge="1">
          <mxGeometry relative="1" as="geometry">
            <mxPoint x="376" y="1713.4099999999999" as="sourcePoint" />
            <Array as="points" />
            <mxPoint x="536" y="1714" as="targetPoint" />
          </mxGeometry>
        </mxCell>
        <mxCell id="pExp2yBgOml2F_YhT2pm-1" value=":ACS" style="shape=umlLifeline;perimeter=lifelinePerimeter;whiteSpace=wrap;html=1;container=0;dropTarget=0;collapsible=0;recursiveResize=0;outlineConnect=0;portConstraint=eastwest;newEdgeStyle={&quot;edgeStyle&quot;:&quot;elbowEdgeStyle&quot;,&quot;elbow&quot;:&quot;vertical&quot;,&quot;curved&quot;:0,&quot;rounded&quot;:0};" parent="1" vertex="1">
          <mxGeometry x="671" y="140" width="100" height="810" as="geometry" />
        </mxCell>
        <mxCell id="pExp2yBgOml2F_YhT2pm-2" value="" style="html=1;points=[];perimeter=orthogonalPerimeter;outlineConnect=0;targetShapes=umlLifeline;portConstraint=eastwest;newEdgeStyle={&quot;edgeStyle&quot;:&quot;elbowEdgeStyle&quot;,&quot;elbow&quot;:&quot;vertical&quot;,&quot;curved&quot;:0,&quot;rounded&quot;:0};" parent="pExp2yBgOml2F_YhT2pm-1" vertex="1">
          <mxGeometry x="45" y="80" width="10" height="420" as="geometry" />
        </mxCell>
        <mxCell id="OlaLoDoMhph_oevRrQ5f-1" value="작업 등록 명령 (O)" style="html=1;verticalAlign=bottom;endArrow=block;edgeStyle=elbowEdgeStyle;elbow=vertical;curved=0;rounded=0;" parent="1" edge="1">
          <mxGeometry relative="1" as="geometry">
            <mxPoint x="551" y="300" as="sourcePoint" />
            <Array as="points">
              <mxPoint x="631" y="300" />
            </Array>
            <mxPoint x="711" y="300" as="targetPoint" />
          </mxGeometry>
        </mxCell>
        <mxCell id="OlaLoDoMhph_oevRrQ5f-2" value="ACK" style="html=1;verticalAlign=bottom;endArrow=block;edgeStyle=elbowEdgeStyle;elbow=vertical;curved=0;rounded=0;" parent="1" edge="1">
          <mxGeometry relative="1" as="geometry">
            <mxPoint x="711" y="330" as="sourcePoint" />
            <Array as="points">
              <mxPoint x="706" y="330" />
            </Array>
            <mxPoint x="551" y="330" as="targetPoint" />
          </mxGeometry>
        </mxCell>
        <mxCell id="OlaLoDoMhph_oevRrQ5f-3" value="작업 상태변경 보고 (R)" style="html=1;verticalAlign=bottom;endArrow=block;edgeStyle=elbowEdgeStyle;elbow=vertical;curved=0;rounded=0;" parent="1" edge="1">
          <mxGeometry relative="1" as="geometry">
            <mxPoint x="711" y="372" as="sourcePoint" />
            <Array as="points">
              <mxPoint x="706" y="372" />
            </Array>
            <mxPoint x="551" y="372" as="targetPoint" />
          </mxGeometry>
        </mxCell>
        <mxCell id="OlaLoDoMhph_oevRrQ5f-4" value="Response" style="html=1;verticalAlign=bottom;endArrow=block;edgeStyle=elbowEdgeStyle;elbow=vertical;curved=0;rounded=0;" parent="1" edge="1">
          <mxGeometry relative="1" as="geometry">
            <mxPoint x="551" y="409.40999999999997" as="sourcePoint" />
            <Array as="points" />
            <mxPoint x="711" y="409" as="targetPoint" />
          </mxGeometry>
        </mxCell>
        <mxCell id="OlaLoDoMhph_oevRrQ5f-5" value=".&lt;div&gt;.&lt;/div&gt;&lt;div&gt;.&lt;/div&gt;&lt;div&gt;.&lt;/div&gt;&lt;div&gt;&lt;br&gt;&lt;/div&gt;" style="text;html=1;align=center;verticalAlign=middle;whiteSpace=wrap;rounded=0;" parent="1" vertex="1">
          <mxGeometry x="596" y="440" width="60" height="30" as="geometry" />
        </mxCell>
        <mxCell id="OlaLoDoMhph_oevRrQ5f-6" value="작업 상태변경 보고(R) : 완료보고" style="html=1;verticalAlign=bottom;endArrow=block;edgeStyle=elbowEdgeStyle;elbow=vertical;curved=0;rounded=0;" parent="1" edge="1">
          <mxGeometry relative="1" as="geometry">
            <mxPoint x="711" y="496" as="sourcePoint" />
            <Array as="points">
              <mxPoint x="706" y="496" />
            </Array>
            <mxPoint x="551" y="496" as="targetPoint" />
          </mxGeometry>
        </mxCell>
        <mxCell id="OlaLoDoMhph_oevRrQ5f-7" value="Response" style="html=1;verticalAlign=bottom;endArrow=block;edgeStyle=elbowEdgeStyle;elbow=vertical;curved=0;rounded=0;" parent="1" edge="1">
          <mxGeometry relative="1" as="geometry">
            <mxPoint x="551" y="533.41" as="sourcePoint" />
            <Array as="points" />
            <mxPoint x="711" y="534" as="targetPoint" />
          </mxGeometry>
        </mxCell>
        <mxCell id="gpRMeTeXtkMMSHT_r7U4-1" value="AMR Order 생성" style="text;html=1;align=center;verticalAlign=middle;whiteSpace=wrap;rounded=0;" vertex="1" parent="1">
          <mxGeometry x="390" y="260" width="130" height="30" as="geometry" />
        </mxCell>
        <mxCell id="gpRMeTeXtkMMSHT_r7U4-2" value="작업 완료 보고" style="text;html=1;align=center;verticalAlign=middle;whiteSpace=wrap;rounded=0;" vertex="1" parent="1">
          <mxGeometry x="386" y="550" width="130" height="30" as="geometry" />
        </mxCell>
      </root>
    </mxGraphModel>
  </diagram>
</mxfile>
